<?xml version="1.0" encoding="utf-8"?>
<!-- Generator: Adobe Illustrator 19.1.0, SVG Export Plug-In . SVG Version: 6.00 Build 0)  -->
<svg version="1.1" id="Layer_1" xmlns="http://www.w3.org/2000/svg" xmlns:xlink="http://www.w3.org/1999/xlink" x="0px" y="0px"
	 width="104.5px" height="53.4px" viewBox="-412.8 254.6 104.5 53.4" style="enable-background:new -412.8 254.6 104.5 53.4;"
	 xml:space="preserve">
<style type="text/css">
	.st0{fill:none;}
</style>
<g id="LOGO_ARTWORK">
	<g>
		<g>
			<path d="M-362.2,276.9c-2.9,0-3.7-1.4-3.7-3.2v-3c0-2,0.5-3.7,3.9-3.7c1.7,0,2.5,0.6,2.7,0.7c0.1,0.1-0.4,1.2-0.5,1.1
				c-0.3-0.2-0.9-0.6-2.1-0.6c-1.6,0-2.4,0.5-2.4,2.5v2.8c0,1.6,0.5,2.2,2,2.2c1.2,0,1.8-0.4,1.8-1.7v-1.2c0-0.1,0-0.3-0.2-0.3
				l-0.9,0c-0.2,0-0.3,0-0.3-0.2c0-0.1,0-0.5,0-0.7c0-0.1,0-0.2,0.2-0.2h2.1c0.5,0,0.6,0.1,0.6,0.5v1.8
				C-359,275.2-359.3,276.9-362.2,276.9z"/>
			<path d="M-352.6,272.3c-0.2,0.1-0.2,0-0.1,0.2l1.8,3.7c0.2,0.4,0.1,0.5-0.1,0.5h-1.2c-0.2,0-0.3-0.1-0.4-0.4l-1.7-3.5
				c-0.1-0.1-0.1-0.1-0.2-0.1h-1.3c-0.1,0-0.1,0-0.1,0.2v3.4c0,0.3-0.1,0.4-0.3,0.4h-1c-0.3,0-0.3-0.2-0.3-0.5v-8.8
				c0-0.2,0-0.3,0.3-0.3h2.8c2.3,0,3.6,1,3.6,2.8C-350.8,271.3-351.8,272.2-352.6,272.3z M-354.5,268.3h-1.2c-0.2,0-0.2,0.1-0.2,0.2
				v2.7c0,0.2,0.1,0.2,0.3,0.2h1.6c0.9,0,1.6-0.5,1.6-1.6C-352.4,268.7-353.3,268.3-354.5,268.3z"/>
			<path d="M-346.4,276.9c-1.3,0-3.6-0.3-3.6-2.8v-3.9c0-2.3,1.1-3.3,3.5-3.3c1.9,0,3.6,0.7,3.6,3.2v3.5
				C-342.9,276.8-345.3,276.9-346.4,276.9z M-344.5,270.3c0-1.4-0.7-2.1-1.9-2.1c-1.5,0-2.1,0.7-2.1,2.1v3.4c0,1.3,1.1,1.8,2,1.8
				c1.1,0,1.9-0.3,1.9-2V270.3z"/>
			<path d="M-338.6,276.9c-1.5,0-3.3-0.6-3.3-2.9v-6.5c0-0.2,0.1-0.3,0.2-0.3h1c0.2,0,0.3,0.1,0.3,0.4v5.9c0,1.3,0.7,2.1,1.8,2.1
				c1.5,0,1.8-0.8,1.8-2.1v-6c0-0.2,0.1-0.3,0.2-0.3h1c0.2,0,0.3,0.1,0.3,0.4v6.2C-335.2,276.5-337.2,276.9-338.6,276.9z"/>
			<path d="M-330.9,273.3h-1.5c-0.2,0-0.2,0-0.2,0.3v2.8c0,0.3-0.1,0.4-0.3,0.4h-1c-0.3,0-0.3-0.2-0.3-0.5v-8.8c0-0.2,0-0.3,0.3-0.3
				h2.8c2.4,0,3.6,1,3.6,3C-327.5,272.2-328.6,273.3-330.9,273.3z M-331.2,268.3h-1.2c-0.2,0-0.2,0.1-0.2,0.2v3.2
				c0,0.2,0.1,0.2,0.3,0.2h1.6c0.9,0,1.7-0.6,1.7-1.9C-329.1,268.8-330,268.3-331.2,268.3z"/>
			<path d="M-362.3,288.4c-1.3,0-3.6-0.3-3.6-2.8v-3.9c0-2.3,1.1-3.3,3.5-3.3c1.9,0,3.6,0.7,3.6,3.2v3.5
				C-358.8,288.3-361.2,288.4-362.3,288.4z M-360.4,281.8c0-1.4-0.7-2.1-1.9-2.1c-1.5,0-2.1,0.7-2.1,2.1v3.4c0,1.3,1.1,1.8,2,1.8
				c1.1,0,1.9-0.3,1.9-2V281.8z"/>
			<path d="M-353.1,279.8h-2.9c-0.3,0-0.3,0.1-0.3,0.2v2.6c0,0.2,0.1,0.3,0.3,0.3h2.5c0.4,0,0.4,0.1,0.4,0.2l-0.1,0.7
				c-0.1,0.3-0.4,0.2-0.6,0.2h-2.2c-0.2,0-0.3,0.1-0.3,0.3v3.5c0,0.2-0.1,0.2-0.2,0.2h-1c-0.2,0-0.3-0.1-0.3-0.4v-8.8
				c0-0.2,0-0.4,0.2-0.4h4.6c0.3,0,0.4,0.1,0.4,0.2v0.7C-352.6,279.8-352.8,279.8-353.1,279.8z"/>
			<path d="M-344.2,288.2h-5c-0.2,0-0.3-0.1-0.3-0.4v-8.8c0-0.2,0-0.4,0.2-0.4h4.7c0.3,0,0.4,0,0.4,0.2v0.8c0,0.2-0.2,0.2-0.6,0.2
				h-2.9c-0.3,0-0.3,0.1-0.3,0.2v2.3c0,0.2,0.1,0.3,0.3,0.3h2.6c0.4,0,0.4,0.1,0.4,0.2l-0.1,0.7c0,0.3-0.4,0.2-0.6,0.2h-2.2
				c-0.3,0-0.4,0.1-0.4,0.3v2.6c0,0.3,0.2,0.3,0.4,0.3h3.2c0.3,0,0.5,0,0.5,0.2v0.8C-343.9,288.2-344,288.2-344.2,288.2z"/>
			<path d="M-341.7,288.2h-1c-0.2,0-0.3-0.1-0.3-0.4v-8.9c0-0.2,0.1-0.3,0.4-0.3h1c0.2,0,0.3,0.1,0.3,0.4v8.9
				C-341.4,288.1-341.5,288.2-341.7,288.2z"/>
			<path d="M-336.8,288.4c-2.9,0-3.7-1.4-3.7-3.2v-3c0-2,0.5-3.7,3.9-3.7c1.7,0,2.5,0.6,2.7,0.7c0.1,0.1-0.4,1.2-0.5,1.1
				c-0.3-0.2-0.9-0.6-2.1-0.6c-1.6,0-2.4,0.5-2.4,2.5v2.8c0,1.6,0.5,2.2,2,2.2c1.2,0,1.8-0.4,1.8-1.7v-1.2c0-0.1,0-0.3-0.2-0.3
				l-0.9,0c-0.2,0-0.3,0-0.3-0.2c0-0.1,0-0.5,0-0.7c0-0.1,0-0.2,0.2-0.2h2.1c0.5,0,0.6,0.1,0.6,0.5v1.8
				C-333.5,286.7-333.8,288.4-336.8,288.4z"/>
			<path d="M-325.8,288.2h-1c-0.2,0-0.3-0.1-0.3-0.4v-3.7c0-0.2,0-0.3-0.2-0.3h-3.4c-0.2,0-0.2,0-0.2,0.2v3.7c0,0.3-0.1,0.4-0.4,0.4
				h-0.9c-0.2,0-0.3-0.1-0.3-0.5V279c0-0.2,0.1-0.3,0.3-0.3h0.9c0.3,0,0.4,0.1,0.4,0.4v3.3c0,0.2,0.1,0.2,0.3,0.2h3.3
				c0.2,0,0.2-0.1,0.2-0.2V279c0-0.2,0.1-0.4,0.4-0.4h0.9c0.3,0,0.3,0.1,0.3,0.3v8.8C-325.5,288.1-325.6,288.2-325.8,288.2z"/>
			<path d="M-318.2,279.8h-2.1c-0.3,0-0.3,0-0.3,0.2v7.7c0,0.3,0,0.4-0.3,0.4h-0.9c-0.3,0-0.3-0.1-0.3-0.4v-7.7c0-0.2,0-0.2-0.3-0.2
				h-2.1c-0.2,0-0.3-0.1-0.3-0.2v-0.8c0-0.2,0.1-0.2,0.4-0.2h6.2c0.3,0,0.4,0,0.4,0.2v0.8C-317.9,279.8-318,279.8-318.2,279.8z"/>
		</g>
		<g>
			<path d="M-361.2,297.9h-0.4c-0.1,0-0.1-0.1-0.2-0.3l-0.6-2h-2.8l-0.6,2c-0.1,0.2-0.1,0.3-0.2,0.3h-0.4c-0.1,0-0.1,0,0-0.4
				l2.2-7.1c0.1-0.2,0.1-0.3,0.3-0.3h0.2c0.2,0,0.2,0.1,0.3,0.3l2.2,7.1C-361,297.9-361.1,297.9-361.2,297.9z M-363.7,291l-1.3,4.3
				h2.5L-363.7,291z"/>
			<path d="M-358.1,298.1c-1.3,0-2.4-0.8-2.4-2.4v-5.3c0-0.2,0-0.3,0.1-0.3h0.4c0.1,0,0.1,0.1,0.1,0.4v5c0,1.3,0.8,2.1,1.9,2.1
				c1.5,0,1.9-0.8,1.9-2.1v-5.1c0-0.2,0-0.3,0.1-0.3h0.4c0.1,0,0.1,0.1,0.1,0.4v5C-355.6,297.6-356.8,298.1-358.1,298.1z"/>
			<path d="M-352.4,298.1c-1.1,0-1.8-0.3-2.1-0.4c-0.1-0.1,0.1-0.6,0.2-0.5c0.3,0.1,0.8,0.5,1.9,0.5c1.2,0,2.2-0.4,2.2-1.5
				c0-0.9-0.4-1.4-1.9-2c-1.2-0.5-2-1-2-2.3c0-0.8,0.6-1.8,2.5-1.8c1.2,0,1.5,0.2,1.7,0.2c0.2,0.1,0,0.6-0.2,0.5
				c-0.3-0.1-0.8-0.2-1.5-0.2c-1.5,0-1.9,0.6-1.9,1.4c0,0.9,0.5,1.3,1.9,1.8c1.7,0.6,2.1,1.4,2.1,2.3
				C-349.7,297.5-351,298.1-352.4,298.1z"/>
			<path d="M-344.4,290.7h-1.8c-0.2,0-0.2,0-0.2,0.2v6.7c0,0.3,0,0.4-0.1,0.4h-0.3c-0.1,0-0.1,0-0.1-0.4v-6.7c0-0.2,0-0.2-0.2-0.2
				h-1.8c-0.1,0-0.2,0-0.2-0.1v-0.3c0-0.1,0-0.1,0.2-0.1h4.7c0.2,0,0.2,0,0.2,0.1v0.4C-344.2,290.7-344.2,290.7-344.4,290.7z"/>
			<path d="M-340.2,294.3c-0.1,0-0.1,0-0.1,0.1l1.6,3.2c0.2,0.3,0.1,0.4,0,0.4h-0.4c-0.1,0-0.1-0.1-0.2-0.3l-1.6-3.2
				c0-0.1-0.1-0.1-0.2-0.1h-1.5c-0.1,0-0.1,0-0.1,0.2v3.1c0,0.3,0,0.3-0.1,0.3h-0.4c-0.2,0-0.1-0.1-0.1-0.4v-7.1
				c0-0.2,0-0.3,0.2-0.3h1.8c1.8,0,2.8,0.6,2.8,2.1C-338.6,293.4-339.5,294.1-340.2,294.3z M-341.4,290.6h-1.2
				c-0.2,0-0.2,0.1-0.2,0.2v2.8c0,0.2,0,0.2,0.2,0.2h1.6c1,0,1.7-0.5,1.7-1.6C-339.3,291-340.2,290.6-341.4,290.6z"/>
			<path d="M-332.2,297.9h-0.4c-0.1,0-0.1-0.1-0.2-0.3l-0.6-2h-2.8l-0.6,2c-0.1,0.2-0.1,0.3-0.2,0.3h-0.4c-0.1,0-0.1,0,0-0.4
				l2.2-7.1c0.1-0.2,0.1-0.3,0.3-0.3h0.2c0.2,0,0.2,0.1,0.3,0.3l2.2,7.1C-332,297.9-332.1,297.9-332.2,297.9z M-334.7,291l-1.3,4.3
				h2.5L-334.7,291z"/>
			<path d="M-326.9,297.9h-3.7c-0.1,0-0.2-0.1-0.2-0.4v-7.1c0-0.2,0-0.3,0.2-0.3h0.3c0.2,0,0.2,0.1,0.2,0.4v6.7
				c0,0.2,0.1,0.2,0.2,0.2h3c0.2,0,0.2,0,0.2,0.2v0.2C-326.8,297.9-326.8,297.9-326.9,297.9z"/>
			<path d="M-325.4,297.9h-0.4c-0.1,0-0.1-0.1-0.1-0.3v-7.3c0-0.2,0-0.2,0.2-0.2h0.2c0.2,0,0.2,0,0.2,0.3v7.3
				C-325.3,297.9-325.3,297.9-325.4,297.9z"/>
			<path d="M-318.7,297.9h-0.4c-0.1,0-0.1-0.1-0.2-0.3l-0.6-2h-2.8l-0.6,2c-0.1,0.2-0.1,0.3-0.2,0.3h-0.4c-0.1,0-0.1,0,0-0.4
				l2.2-7.1c0.1-0.2,0.1-0.3,0.3-0.3h0.2c0.2,0,0.2,0.1,0.3,0.3l2.2,7.1C-318.5,297.9-318.6,297.9-318.7,297.9z M-321.2,291
				l-1.3,4.3h2.5L-321.2,291z"/>
		</g>
	</g>
	<g>
		<polygon points="-412.3,280.5 -409.5,292.4 -401.3,282.5 		"/>
		<polygon points="-393.4,264.6 -412.1,279.9 -400.9,282 		"/>
		<polygon points="-385.2,272.5 -392.7,264.4 -400.1,281.6 		"/>
		<polygon points="-387.1,289.9 -385.4,273.2 -400.2,282.3 		"/>
		<polygon points="-384.8,273.3 -386.5,290 -371,284.9 		"/>
		<polygon points="-370.6,285.4 -386.5,290.6 -386.6,290.7 -377.8,298.4 		"/>
		<polygon points="-409,292.7 -387.3,290.5 -400.7,282.7 		"/>
		<polygon points="-381.8,264.4 -384.9,272.4 -370.8,284.3 		"/>
	</g>
</g>
<g id="CLEARSPACE">
	<path class="st0" d="M-363.9,255.8h-2.1c-0.3,0-0.3,0-0.3,0.2v7.7c0,0.3,0,0.4-0.3,0.4h-0.9c-0.3,0-0.3-0.1-0.3-0.4v-7.7
		c0-0.2,0-0.2-0.3-0.2h-2.1c-0.2,0-0.3-0.1-0.3-0.2v-0.8c0-0.2,0.1-0.2,0.4-0.2h6.2c0.3,0,0.4,0,0.4,0.2v0.8
		C-363.7,255.7-363.7,255.8-363.9,255.8z"/>
	<path class="st0" d="M-363.9,299.6h-2.1c-0.3,0-0.3,0-0.3,0.2v7.7c0,0.3,0,0.4-0.3,0.4h-0.9c-0.3,0-0.3-0.1-0.3-0.4v-7.7
		c0-0.2,0-0.2-0.3-0.2h-2.1c-0.2,0-0.3-0.1-0.3-0.2v-0.8c0-0.2,0.1-0.2,0.4-0.2h6.2c0.3,0,0.4,0,0.4,0.2v0.8
		C-363.7,299.6-363.7,299.6-363.9,299.6z"/>
	<path class="st0" d="M-420.8,277.8v2.1c0,0.3,0,0.3,0.2,0.3h7.7c0.3,0,0.4,0,0.4,0.3v0.9c0,0.3-0.1,0.3-0.4,0.3h-7.7
		c-0.2,0-0.2,0-0.2,0.3v2.1c0,0.2-0.1,0.3-0.2,0.3h-0.8c-0.2,0-0.2-0.1-0.2-0.4V278c0-0.3,0-0.4,0.2-0.4h0.8
		C-420.9,277.6-420.8,277.6-420.8,277.8z"/>
	<path class="st0" d="M-309.6,284.1V282c0-0.3,0-0.3-0.2-0.3h-7.7c-0.3,0-0.4,0-0.4-0.3v-0.9c0-0.3,0.1-0.3,0.4-0.3h7.7
		c0.2,0,0.2,0,0.2-0.3v-2.1c0-0.2,0.1-0.3,0.2-0.3h0.8c0.2,0,0.2,0.1,0.2,0.4v6.2c0,0.3,0,0.4-0.2,0.4h-0.8
		C-309.5,284.4-309.6,284.4-309.6,284.1z"/>
</g>
</svg>
